# 
# Wavefront OBJ file
# Converted by the DEEP Exploration Deep Exploration 4.1.20.1005 Release
# Right Hemisphere, LTD
# http://www.righthemisphere.com/
# 
mtllib fluidSample.mtl
# object Box01
g Box01
v -2 -5 0.000464
v 2 -5 0.000464
v -2 5 0.000464
v 2 5 0.000464
v -2 5 3.28833
v -1.5 5 2.86231
v -0.520944 5 2.50046
v 0.520945 5 2.50046
v 1.5 5 2.86231
v 2 5 3.28833
v -1.5 -5 1.09904
v -2 -5 1.52506
v -0.520944 -5 0.737194
v 0.520945 -5 0.737195
v 1.5 -5 1.09904
v 2 -5 1.52506
# 16 verticies
vn 0 0 -1
vn 1 0 0
vn 0 1 0
vn -1 0 0
vn 0 -1 0
vn -0.642788 -0.133022 0.754406
vn -0.5 -0.150384 0.852868
vn -0.5 -0.150384 0.852868
vn -0.642788 -0.133022 0.754406
vn 0.5 -0.150384 0.852868
vn 0.642788 -0.133022 0.754406
vn 0.173648 -0.17101 0.969846
vn 0.173648 -0.17101 0.969846
vn -0.115566 -0.172485 0.978209
vn -0.231132 -0.168946 0.958142
# 15 normals
usemtl Explorer_Default
f  1//1 3//1 4//1
f  4//1 2//1 1//1
f  2//2 4//2 10//2
f  2//2 10//2 16//2
f  9//3 10//3 4//3
f  8//3 9//3 4//3
f  7//3 8//3 4//3
f  6//3 7//3 4//3
f  6//3 4//3 3//3
f  6//3 3//3 5//3
f  3//4 1//4 12//4
f  5//4 3//4 12//4
f  11//5 12//5 1//5
f  13//5 11//5 1//5
f  13//5 1//5 2//5
f  2//5 16//5 15//5
f  2//5 15//5 14//5
f  13//5 2//5 14//5
f  10//6 9//7 15//8
f  15//8 16//9 10//6
f  11//10 6//10 5//11
f  5//11 12//11 11//10
f  7//12 6//10 11//10
f  11//10 13//13 7//12
f  14//14 8//15 7//12
f  7//12 13//13 14//14
f  15//8 9//7 8//15
f  8//15 14//14 15//8
